<svg width="178" height="180" viewBox="0 0 178 180" fill="none" xmlns="http://www.w3.org/2000/svg">
<path fill-rule="evenodd" clip-rule="evenodd" d="M50.3448 171.068C30.4092 161.347 14.7703 144.464 6.47984 123.713C2.19363 113.04 -0.00693012 101.629 -2.62258e-06 90.1096C-0.0269649 67.7288 8.19339 46.1407 23.057 29.5579C37.9205 12.9752 58.3608 2.58769 80.3892 0.42236C102.418 -1.74297 124.454 4.46927 142.197 17.8468C159.941 31.2243 172.118 50.8073 176.354 72.7745C180.59 94.7416 176.581 117.517 165.107 136.656C153.634 155.794 135.521 169.924 114.302 176.286C93.0826 182.649 70.2806 180.789 50.3448 171.068ZM76.7557 87.9582C75.0099 89.7236 71.9977 88.7253 71.6518 86.2667L67.8289 59.0962C67.6986 58.1702 68.0076 57.2363 68.6646 56.5708L93.7285 31.1786C82.6307 30.3147 71.4815 32.5601 61.5616 37.6993C50.4584 43.4515 41.4592 52.5368 35.842 63.6651C30.2247 74.7934 28.2747 87.3991 30.2691 99.6922C32.2633 111.985 38.1007 123.341 46.952 132.147C49.1295 134.322 51.4754 136.324 53.9683 138.133L54.5061 138.348L100.441 91.8971C102.187 90.1317 105.199 91.13 105.545 93.5886L109.368 120.758C109.498 121.685 109.189 122.619 108.531 123.285L83.0698 149.056C91.411 149.865 99.8405 148.932 107.815 146.305C116.622 143.403 124.635 138.512 131.226 132.016C142.398 120.904 148.675 105.833 148.675 90.1174C148.675 74.4023 142.398 59.3307 131.226 48.2184C129.036 46.0569 126.691 44.0564 124.21 42.2328L122.607 41.5913L76.7557 87.9582Z" fill="#97144D"/>
</svg>
